name D:\school\WTK\thesis\model\3dpredictsim\Results\debug_tmt\Pog_s1_tmt_bCst_d02_k800_kc1_t5_ig24_pas_v2.mot
datacolumns 128
datarows 4
range 1.07153363 1.10367964
endheader
time	pelvis_tilt	pelvis_list	pelvis_rotation	pelvis_tx	pelvis_ty	pelvis_tz	hip_flexion_l	hip_adduction_l	hip_rotation_l	hip_flexion_r	hip_adduction_r	hip_rotation_r	knee_angle_l	knee_angle_r	ankle_angle_l	ankle_angle_r	subtalar_angle_l	subtalar_angle_r	tmt_angle_l	tmt_angle_r	mtp_angle_l	mtp_angle_r	lumbar_extension	lumbar_bending	lumbar_rotation	arm_flex_l	arm_add_l	arm_rot_l	arm_flex_r	arm_add_r	arm_rot_r	elbow_flex_l	elbow_flex_r	pro_sup_l	pro_sup_r	glut_med1_l/activation	glut_med2_l/activation	glut_med3_l/activation	glut_min1_l/activation	glut_min2_l/activation	glut_min3_l/activation	semimem_l/activation	semiten_l/activation	bifemlh_l/activation	bifemsh_l/activation	sar_l/activation	add_long_l/activation	add_brev_l/activation	add_mag1_l/activation	add_mag2_l/activation	add_mag3_l/activation	tfl_l/activation	pect_l/activation	grac_l/activation	glut_max1_l/activation	glut_max2_l/activation	glut_max3_l/activation	iliacus_l/activation	psoas_l/activation	quad_fem_l/activation	gem_l/activation	peri_l/activation	rect_fem_l/activation	vas_med_l/activation	vas_int_l/activation	vas_lat_l/activation	med_gas_l/activation	lat_gas_l/activation	soleus_l/activation	tib_post_l/activation	flex_dig_l/activation	flex_hal_l/activation	tib_ant_l/activation	per_brev_l/activation	per_long_l/activation	per_tert_l/activation	ext_dig_l/activation	ext_hal_l/activation	ercspn_l/activation	intobl_l/activation	extobl_l/activation	glut_med1_r/activation	glut_med2_r/activation	glut_med3_r/activation	glut_min1_r/activation	glut_min2_r/activation	glut_min3_r/activation	semimem_r/activation	semiten_r/activation	bifemlh_r/activation	bifemsh_r/activation	sar_r/activation	add_long_r/activation	add_brev_r/activation	add_mag1_r/activation	add_mag2_r/activation	add_mag3_r/activation	tfl_r/activation	pect_r/activation	grac_r/activation	glut_max1_r/activation	glut_max2_r/activation	glut_max3_r/activation	iliacus_r/activation	psoas_r/activation	quad_fem_r/activation	gem_r/activation	peri_r/activation	rect_fem_r/activation	vas_med_r/activation	vas_int_r/activation	vas_lat_r/activation	med_gas_r/activation	lat_gas_r/activation	soleus_r/activation	tib_post_r/activation	flex_dig_r/activation	flex_hal_r/activation	tib_ant_r/activation	per_brev_r/activation	per_long_r/activation	per_tert_r/activation	ext_dig_r/activation	ext_hal_r/activation	ercspn_r/activation	intobl_r/activation	extobl_r/activation	
          1.07153363	         -1.53844068	          1.86120102	          8.57434090	          1.33941704	          0.86788616	         -0.00657234	         -7.49985907	         -0.20047272	          2.68003911	         27.47971055	         -2.94935081	         -1.96741661	        -29.25137025	        -16.27973675	        -17.01757305	         -9.10170165	         13.45232427	         -0.26791374	          1.56358031	          0.32662357	         37.19902066	         -0.56174416	         -0.10875174	         -3.93851153	         -3.41290375	          4.12158100	        -15.10152770	          4.87679058	        -21.48169372	        -13.75938873	          2.23741271	         66.75335923	         11.89104450	         86.51662706	         86.51662706	          0.53798744	          0.23298446	          0.12297222	          0.56547389	          0.49270032	          0.40412891	          0.29350938	          0.12454919	          0.12652012	          0.10441970	          0.29476212	          0.42879871	          0.39131248	          0.40987215	          0.42491599	          0.29062504	          0.46972373	          0.42162278	          0.28253723	          0.37489248	          0.26400641	          0.22845540	          0.39930832	          0.52063908	          0.10885831	          0.35668595	          0.34141215	          0.43945842	          0.28245942	          0.29195058	          0.23909699	          0.23269559	          0.49417712	          0.12948906	          0.43251255	          0.60112284	          0.53552222	          0.05444363	          0.38992316	          0.41786540	          0.12981525	          0.06743825	          0.11814312	          0.05052856	          0.07899946	          0.06977549	          0.33834712	          0.28464880	          0.31789645	          0.38118002	          0.40074875	          0.40306780	          0.16742555	          0.18286620	          0.17342401	          0.18368711	          0.37342150	          0.33396646	          0.31363183	          0.38595997	          0.34239310	          0.27131557	          0.37629466	          0.47163467	          0.37308714	          0.29497999	          0.21930448	          0.27830075	          0.24934959	          0.26706266	          0.51300395	          0.45792687	          0.44559706	          0.10101161	          0.10490125	          0.09930840	          0.09703766	          0.14549168	          0.22085760	          0.07476740	          0.31881346	          0.40496288	          0.34611474	          0.54371081	          0.48698662	          0.25916116	          0.64195089	          0.69787400	          0.54739044	          0.05655715	          0.16161611	          0.19498861	
          1.08224897	         -1.52581901	          1.93537899	          8.60434168	          1.35664681	          0.86569518	         -0.00615117	         -8.19787692	         -0.47331731	          2.52993540	         27.53327545	         -2.91055136	         -1.84179878	        -29.63625808	        -17.44336602	        -18.51020318	         -9.22246761	         13.91556465	         -0.21790687	          1.34559013	          0.42404841	         37.01183738	         -0.56399286	          0.06996327	         -3.70045315	         -3.61422999	          4.24066671	        -15.13732527	          4.97965053	        -22.57749395	        -13.65157720	          2.13811887	         67.41110708	         11.08926647	         86.51662706	         86.51662706	          0.49824513	          0.23491651	          0.12280817	          0.51617709	          0.46113888	          0.40962638	          0.30005008	          0.14495817	          0.14615485	          0.13988256	          0.31663715	          0.48420985	          0.55212018	          0.45708077	          0.43546430	          0.30158366	          0.42672039	          0.50343377	          0.38186068	          0.36641448	          0.25973238	          0.21634721	          0.36559376	          0.52839886	          0.14259342	          0.38354417	          0.34858108	          0.37343638	          0.24083292	          0.24884690	          0.20366380	          0.21554014	          0.46816902	          0.12878034	          0.40708256	          0.56556876	          0.50497093	          0.11256370	          0.33964512	          0.36455613	          0.13719033	          0.14801544	          0.16888953	          0.06144832	          0.07600330	          0.07035909	          0.40279199	          0.31721326	          0.30970484	          0.45037629	          0.41623985	          0.39648049	          0.14515851	          0.16105954	          0.15260433	          0.15890424	          0.34851164	          0.30020725	          0.32047242	          0.48664874	          0.47314757	          0.32897552	          0.34096672	          0.47079894	          0.32732789	          0.30629266	          0.27760190	          0.36208091	          0.21477322	          0.22934875	          0.43993315	          0.44072794	          0.48513205	          0.10486358	          0.22567021	          0.24497573	          0.18358018	          0.12361427	          0.18785558	          0.06348082	          0.33249552	          0.48469705	          0.35867710	          0.72706418	          0.41514067	          0.22050954	          0.74832059	          0.79546665	          0.72855965	          0.05657374	          0.13751550	          0.16600624	
          1.09296430	         -1.50985883	          2.00512197	          8.59754509	          1.37393788	          0.86322466	         -0.00571757	         -8.76858666	         -0.71280700	          2.40201211	         27.44040723	         -2.80010540	         -1.67758865	        -30.29885851	        -19.15557196	        -19.52240586	         -8.97721662	         14.28075036	         -0.31038004	          1.09200036	          0.32710413	         35.65694963	         -0.47689519	          0.24281664	         -3.44011475	         -3.80053657	          4.29362489	        -15.20882559	          5.04506952	        -23.64614495	        -13.57277685	          2.00440852	         68.03863947	         10.38885209	         86.51662706	         86.51662706	          0.50756328	          0.23352103	          0.12958672	          0.46718015	          0.42520054	          0.37334845	          0.30572420	          0.16000938	          0.17770722	          0.12596785	          0.29071196	          0.53942277	          0.58878347	          0.52569984	          0.47086848	          0.37282165	          0.38665512	          0.50237598	          0.39238190	          0.38302384	          0.28995715	          0.30714679	          0.31558841	          0.49111368	          0.22768206	          0.35062640	          0.31464633	          0.31739093	          0.20554204	          0.21226478	          0.17360697	          0.22268143	          0.44959811	          0.13357907	          0.37918479	          0.52574918	          0.48025090	          0.18328305	          0.30030520	          0.32060511	          0.13919388	          0.23596697	          0.25533837	          0.11122152	          0.08095222	          0.06474335	          0.38845938	          0.43369209	          0.59549639	          0.42335182	          0.40279326	          0.51930022	          0.12501618	          0.14103744	          0.13259436	          0.13718641	          0.33594480	          0.25826438	          0.36531905	          0.42342640	          0.41861861	          0.34590485	          0.31826703	          0.45767154	          0.28394642	          0.39574573	          0.43428829	          0.48076174	          0.18430080	          0.19624403	          0.46547143	          0.53082913	          0.65175227	          0.09956881	          0.20824429	          0.22314593	          0.16976054	          0.11293605	          0.18457089	          0.07743724	          0.41035226	          0.51730848	          0.42027096	          0.61782609	          0.35357393	          0.18781723	          0.63618946	          0.67645937	          0.67671276	          0.07345302	          0.11696544	          0.14124430	
          1.10367964	         -1.49369916	          2.06055332	          8.54595682	          1.39099781	          0.86085874	         -0.00527498	         -9.16855165	         -0.92794505	          2.29381833	         27.24079092	         -2.61471947	         -1.49517623	        -31.24774491	        -21.01503116	        -20.17845870	         -7.75774444	         14.56129609	         -0.59441437	          0.92930747	          0.86466710	         33.04434723	          0.14751997	          0.39496565	         -3.15018946	         -3.96876199	          4.33113337	        -15.28247613	          5.07022453	        -24.61894003	        -13.52223368	          1.84627395	         68.53192420	          9.77186539	         86.51662706	         86.51662706	          0.45067707	          0.24497085	          0.13687836	          0.42863630	          0.38735193	          0.35902877	          0.30954896	          0.15189574	          0.18219878	          0.10941181	          0.25760482	          0.58805680	          0.63384078	          0.63674169	          0.53331215	          0.43842343	          0.36602237	          0.46885921	          0.35082517	          0.39448313	          0.31996921	          0.42391743	          0.27063510	          0.44890039	          0.21690449	          0.37049626	          0.30583740	          0.26996085	          0.17632175	          0.18180422	          0.14859918	          0.23888907	          0.43560129	          0.13270922	          0.37410556	          0.48680129	          0.46568356	          0.23664987	          0.26718793	          0.28204739	          0.14685655	          0.28533743	          0.32916654	          0.16756936	          0.09860990	          0.05825640	          0.42502687	          0.58221023	          0.74696435	          0.38417618	          0.49831409	          0.59425356	          0.10725025	          0.12395460	          0.11394694	          0.11875701	          0.30229815	          0.22363784	          0.31508000	          0.37731108	          0.38736789	          0.34429609	          0.36441296	          0.41021188	          0.24906324	          0.51114644	          0.44385531	          0.46360852	          0.15830244	          0.16902004	          0.63655886	          0.55665003	          0.58276764	          0.13411076	          0.37443938	          0.38112139	          0.30751952	          0.10001530	          0.17306390	          0.06644308	          0.44512866	          0.55592294	          0.47137188	          0.52449559	          0.30387133	          0.16125520	          0.54710363	          0.58226694	          0.63573599	          0.06519882	          0.09943926	          0.12026191	
